<svg width="32" height="19" viewBox="0 0 32 19" fill="none" xmlns="http://www.w3.org/2000/svg">
<path d="M15.6407 18.4205H15.6563H17.5334C17.5429 18.4189 17.5549 18.4168 17.5691 18.4141C17.6132 18.4055 17.675 18.3914 17.7428 18.3698C17.8925 18.322 18.0094 18.2572 18.0686 18.1908L18.069 18.1903C18.1106 18.1438 18.1559 18.0379 18.1826 17.8857C18.1944 17.8186 18.2001 17.7575 18.2027 17.7136C18.2039 17.6919 18.2044 17.6753 18.2046 17.6651L18.2047 17.6552L18.2047 17.6552L18.2047 17.6547V17.6544L18.2047 17.6523L18.2046 17.6448L18.2046 17.6185C18.2046 17.5962 18.2048 17.5645 18.2055 17.5247C18.2069 17.445 18.2103 17.3322 18.2183 17.1961C18.2343 16.9255 18.2688 16.5558 18.3441 16.1687C18.4186 15.786 18.5378 15.3607 18.7351 14.9929C18.9313 14.6272 19.2352 14.2637 19.7017 14.1097L19.7018 14.1096C20.2299 13.9354 20.7206 14.167 21.0925 14.4382C21.4744 14.7167 21.8551 15.1262 22.2179 15.5456C22.3818 15.7352 22.5381 15.9218 22.6935 16.1073C22.9032 16.3577 23.1113 16.6063 23.3348 16.8579C23.7126 17.2833 24.0767 17.6489 24.4295 17.9009L24.4297 17.9011C24.9685 18.2863 25.4271 18.4264 25.7342 18.4753C25.889 18.5 26.0083 18.5019 26.0831 18.4989C26.1206 18.4974 26.1469 18.4946 26.1609 18.4928C26.1656 18.4923 26.1689 18.4918 26.1707 18.4915L26.2112 18.4831L26.2586 18.4824L30.5154 18.4207L30.5178 18.4205C30.524 18.42 30.5324 18.4191 30.5427 18.418C30.5507 18.4171 30.56 18.416 30.5703 18.4147C30.6176 18.4087 30.686 18.3982 30.7656 18.3809C30.9312 18.3449 31.1157 18.2853 31.2609 18.1952C31.4019 18.1078 31.4684 18.0168 31.4903 17.9187C31.5136 17.8145 31.511 17.5936 31.2823 17.1988L15.6407 18.4205ZM15.6407 18.4205L15.6263 18.4214L15.626 18.4214L15.6259 18.4214L15.6255 18.4214L15.6251 18.4214L15.6208 18.4216L15.5931 18.4227C15.5669 18.4235 15.5256 18.4242 15.4703 18.424C15.3598 18.4234 15.1935 18.4185 14.9807 18.4006C14.5548 18.3648 13.9439 18.2771 13.2198 18.0688C11.7743 17.6528 9.87405 16.7552 8.08689 14.8187C6.10867 12.6748 4.22567 9.4485 2.82786 6.72764C2.13187 5.37288 1.56148 4.15406 1.1652 3.27413C0.96712 2.8343 0.812688 2.47947 0.707971 2.23508C0.655616 2.11289 0.615698 2.01833 0.588976 1.95457L0.558888 1.88245L0.554953 1.87294M15.6407 18.4205L0.554953 1.87294M24.8751 1.74465L24.8736 1.74866L24.8468 1.82121C24.8234 1.88414 24.7889 1.97545 24.7445 2.09039C24.6557 2.32018 24.5269 2.64485 24.3659 3.02626C24.0448 3.78691 23.5921 4.78257 23.0709 5.70334L24.8751 1.74465ZM24.8751 1.74465C24.878 1.73878 24.8819 1.73101 24.8867 1.7217C24.9008 1.69464 24.9218 1.65679 24.9483 1.61579C25.0087 1.52238 25.0666 1.46165 25.1024 1.43913C25.1359 1.41847 25.1978 1.40044 25.28 1.39512C25.3167 1.39274 25.3487 1.39348 25.3703 1.39473C25.3809 1.39534 25.3883 1.39604 25.3917 1.3964C25.3921 1.39643 25.3924 1.39646 25.3926 1.39649L25.4254 1.40114L25.4623 1.4009L30.274 1.3697L30.3033 1.36951L30.3315 1.36601L30.3317 1.36599L30.3319 1.36595L30.3321 1.36593L30.3323 1.3659L30.3326 1.36587L30.3407 1.36497C30.3485 1.36413 30.3611 1.36283 30.3779 1.36133C30.4116 1.35832 30.4615 1.35451 30.5226 1.35178C30.6466 1.34624 30.8087 1.34553 30.9719 1.36225C31.1402 1.37948 31.2808 1.41248 31.3778 1.4578C31.424 1.47936 31.4499 1.49895 31.4631 1.51177C31.4741 1.52246 31.4766 1.52841 31.4779 1.53207C31.4953 1.5828 31.5123 1.71321 31.4522 1.97047C31.3939 2.21995 31.2739 2.54321 31.0771 2.94779C30.6839 3.75631 30.015 4.82747 29.0389 6.18158C28.6414 6.73301 28.2766 7.22438 27.9563 7.65586C27.6434 8.07736 27.373 8.44172 27.1559 8.74907C26.7155 9.37243 26.3886 9.90047 26.2857 10.4065C26.1693 10.9791 26.3473 11.4517 26.6932 11.9181C27.0004 12.3323 27.4834 12.7987 28.0908 13.3852C28.1235 13.4167 28.1566 13.4486 28.19 13.4809C29.4535 14.7016 30.2069 15.6 30.651 16.2025C31.0188 16.7014 31.1723 16.9921 31.2462 17.132C31.261 17.16 31.2726 17.182 31.2821 17.1984L24.8751 1.74465ZM0.554953 1.87294L0.554169 1.87057C0.55094 1.86054 0.545919 1.84427 0.540182 1.8233C0.528416 1.78031 0.515158 1.72309 0.507144 1.66276C0.498841 1.60026 0.498293 1.54988 0.502829 1.51545C0.503235 1.51237 0.50365 1.50964 0.504058 1.50724C0.514793 1.49951 0.533886 1.4875 0.565002 1.4733C0.621551 1.44749 0.693777 1.42535 0.773539 1.40815C0.851642 1.39131 0.925651 1.38158 0.98059 1.37617C1.00764 1.37351 1.02901 1.372 1.04265 1.37119L1.05483 1.37054L5.56522 1.33977C5.56739 1.34027 5.56964 1.3408 5.57196 1.34135C5.60602 1.34942 5.65548 1.36243 5.71265 1.38127C5.8333 1.42103 5.95934 1.47739 6.05102 1.5474L6.3545 1.15004M0.554953 1.87294L1.04282 0.870615L5.61511 0.839419M6.3545 1.15004C6.60863 1.34446 6.75112 1.70798 6.75112 1.70798M6.3545 1.15004L6.05069 1.54716C6.10296 1.58714 6.16296 1.66281 6.21655 1.75441C6.24093 1.79609 6.25962 1.83351 6.27183 1.85966C6.27786 1.87256 6.28209 1.88226 6.28445 1.8878L6.28591 1.89129M6.3545 1.15004C6.04606 0.914473 5.61511 0.839419 5.61511 0.839419M6.75112 1.70798L6.28375 1.88563L6.2838 1.88576L6.28395 1.88616L6.28445 1.88748L6.28591 1.89129M6.75112 1.70798C6.75112 1.70798 7.49007 3.65308 8.46883 5.4128L6.75112 1.70798ZM6.28591 1.89129L6.28626 1.89221L6.29306 1.90992L6.31905 1.97691C6.34177 2.03507 6.37512 2.11959 6.41812 2.22629C6.50409 2.43962 6.6288 2.74197 6.78441 3.09987C7.09496 3.81408 7.53161 4.75641 8.03184 5.65578M6.28591 1.89129L8.03184 5.65578M5.61511 0.839419C5.52932 1.332 5.52922 1.33199 5.52913 1.33197L5.52895 1.33194L5.52861 1.33188L5.52804 1.33178L5.52769 1.33172L5.61511 0.839419ZM8.03184 5.65578C8.98814 7.37566 9.71394 8.47159 10.3035 9.09268C10.5977 9.40264 10.8943 9.63407 11.2066 9.7446C11.5478 9.86537 11.8759 9.82991 12.164 9.66643L12.1642 9.66633C12.4077 9.52805 12.5633 9.29923 12.6664 9.08804C12.7728 8.86987 12.8497 8.6153 12.9075 8.35437C13.0232 7.83155 13.0779 7.2073 13.102 6.6227C13.1263 6.03376 13.1202 5.46463 13.1082 5.04423C13.1022 4.83358 13.0947 4.65922 13.0886 4.53708C13.0856 4.47599 13.0829 4.42791 13.081 4.39482L13.079 4.36062L13.079 4.35766C13.079 4.34417 13.0789 4.32505 13.0786 4.30089C13.0781 4.25261 13.0768 4.18404 13.0735 4.10001C13.0671 3.93253 13.0531 3.70083 13.0224 3.44453C12.9647 2.96204 12.8373 2.28163 12.5116 1.82057C12.2486 1.44797 11.8825 1.22464 11.5632 1.0902C11.506 1.06613 11.4493 1.04447 11.3937 1.025C11.4646 0.968008 11.5425 0.915634 11.6226 0.874809L11.6227 0.874755C11.9446 0.710572 12.4336 0.605586 13.0977 0.550837C13.7526 0.496847 14.5239 0.495014 15.3829 0.504289L15.3831 0.504291C16.6866 0.517951 17.0318 0.600864 17.5119 0.721612L17.512 0.72164C17.8195 0.798915 17.9603 0.912192 18.0458 1.04003C18.1449 1.1882 18.2172 1.42664 18.2468 1.84245C18.2761 2.25529 18.2602 2.77408 18.2344 3.44652C18.2324 3.49971 18.2303 3.55373 18.2282 3.60859C18.2038 4.23811 18.1751 4.97809 18.1751 5.83239C18.1751 5.99579 18.1703 6.1826 18.1652 6.38193C18.1535 6.8311 18.1403 7.34389 18.1769 7.79587C18.2287 8.43382 18.39 9.2081 19.0073 9.62336L19.0076 9.62361C19.219 9.76556 19.4889 9.81859 19.7887 9.73614C20.0628 9.66076 20.3399 9.47907 20.6313 9.2054C21.2144 8.65759 21.9943 7.60606 23.0709 5.70339L8.03184 5.65578ZM26.2658 18.9824C26.1648 18.4927 26.1651 18.4926 26.1653 18.4926L26.1648 18.4927L26.2658 18.9824ZM26.2658 18.9824C26.2658 18.9824 25.3474 19.1718 24.1389 18.3078L26.2658 18.9824ZM18.7047 17.649C18.2047 17.6567 18.2047 17.6565 18.2047 17.6564L18.2047 17.6567L18.7047 17.649ZM18.7047 17.649C18.7047 17.649 18.7134 18.2196 18.4419 18.5235L18.7047 17.649ZM18.7043 17.649L18.2047 17.656L18.2047 17.6558V17.6558C18.2047 17.6559 18.2047 17.656 18.7043 17.649ZM24.8694 1.75664C24.8693 1.75695 24.8693 1.75694 24.8694 1.75662L24.8694 1.75664Z" stroke="#CCA448"/>
</svg>
