<svg width="17" height="17" viewBox="0 0 17 17" fill="none" xmlns="http://www.w3.org/2000/svg">
<path d="M16.8963 15.8946L11.9579 10.9563C12.8945 9.79989 13.4584 8.32979 13.4584 6.72919C13.4584 3.01874 10.4396 0 6.72916 0C3.0187 0 0 3.01874 0 6.72919C0 10.4397 3.01874 13.4584 6.7292 13.4584C8.32979 13.4584 9.7999 12.8945 10.9563 11.9579L15.8946 16.8963C16.033 17.0346 16.2572 17.0346 16.3955 16.8963L16.8963 16.3955C17.0346 16.2572 17.0346 16.0329 16.8963 15.8946ZM6.7292 12.0417C3.79971 12.0417 1.41668 9.65868 1.41668 6.72919C1.41668 3.79971 3.79971 1.41668 6.7292 1.41668C9.65868 1.41668 12.0417 3.79971 12.0417 6.72919C12.0417 9.65868 9.65868 12.0417 6.7292 12.0417Z" fill="#666666"/>
</svg>
